# xmcd
#
# Track frame offsets: 
#        150
#        12449
#        26703
#        40688
#        52690
#        64905
#        79478
#        94228
#        107184
#        122796
#        138160
#        150938
#        163907
#        179302
#
# Disc length: 2573 seconds
#
# Revision: 0
# Processed by: cddbd v1.5.2PL0 Copyright (c) Steve Scherf et al.
# Submitted via: ExactAudioCopyFreeDBPlugin 1.0
#
DISCID=b30a0b0e
DTITLE=Various Artist - Paris Café Blues CD2
DYEAR=2014
DGENRE=Blues
TTITLE0=The Harlem Hamfats - Oh red
TTITLE1=Count Basie - Good morning blues
TTITLE2=Sonny Boy Williamson - Good morning school girl
TTITLE3=Peetie Wheatstraw - Shack bully stomp
TTITLE4=Big Joe Turner - Goin' away blues
TTITLE5=Billie Holiday - Fine and mellow
TTITLE6=Lonnie Johnson - The loveless blues
TTITLE7=Louis Armstrong - 2 19 blues
TTITLE8=Billy Eckstine - Jelly jelly
TTITLE9=Lil Green - Romance in the dark
TTITLE10=Big Bill Broonzy - I feel so good
TTITLE11=Big Joe Williams - Please don't go
TTITLE12=Memphis Slim - Beer drinking woman
TTITLE13=Louis Jordan Tympany Five - Mama mama blues
EXTD=
EXTT0=
EXTT1=
EXTT2=
EXTT3=
EXTT4=
EXTT5=
EXTT6=
EXTT7=
EXTT8=
EXTT9=
EXTT10=
EXTT11=
EXTT12=
EXTT13=
PLAYORDER=
